<svg width="35" height="35" viewBox="0 0 43 40" fill="none" xmlns="http://www.w3.org/2000/svg">
<g clip-path="url(#clip0)">
<path d="M22.39 24.82C25.0907 24.82 27.28 22.6217 27.28 19.91C27.28 17.1983 25.0907 15 22.39 15C19.6893 15 17.5 17.1983 17.5 19.91C17.5 22.6217 19.6893 24.82 22.39 24.82Z" fill="black"/>
<path fill-rule="evenodd" clip-rule="evenodd" d="M32.4425 39.9925C26.3925 39.9925 18.79 36.1325 12.5975 29.9175C2.9425 20.225 -0.282501 8.2775 5.2575 2.715C7.02 0.942499 9.53 0.00499916 12.5025 0.00499916C18.555 0.00499916 26.1575 3.8675 32.35 10.085C42.0025 19.775 45.225 31.7225 39.69 37.285C37.9275 39.0575 35.42 39.9925 32.4425 39.9925V39.9925ZM12.505 3.355C10.4025 3.355 8.755 3.935 7.615 5.0825C3.54 9.1725 6.9025 19.4625 14.955 27.5475C20.5425 33.1575 27.245 36.645 32.4425 36.645C34.5475 36.645 36.1925 36.065 37.335 34.9175C41.4125 30.825 38.0475 20.5375 29.995 12.4525C24.4075 6.84 17.705 3.355 12.505 3.355V3.355Z" fill="black"/>
<path fill-rule="evenodd" clip-rule="evenodd" d="M12.505 39.9925C9.5325 39.9925 7.0225 39.0575 5.26 37.285C-0.282502 31.7225 2.9425 19.775 12.6 10.0825C18.7925 3.8675 26.395 0.00499916 32.445 0.00499916C35.4225 0.00499916 37.9275 0.942499 39.695 2.715C45.23 8.2725 42.005 20.2225 32.355 29.9175C26.16 36.1325 18.555 39.9925 12.505 39.9925ZM32.4425 3.3525C27.245 3.3525 20.5425 6.84 14.955 12.45C6.9025 20.5375 3.5425 30.8275 7.615 34.9175C8.755 36.0625 10.4025 36.645 12.505 36.645C17.705 36.645 24.405 33.1575 29.995 27.5475C38.0475 19.46 41.405 9.1675 37.3325 5.08C36.19 3.935 34.545 3.3525 32.4425 3.3525V3.3525Z" fill="black"/>
</g>
<defs>
<clipPath id="clip0">
<rect width="42.5" height="40" fill="white"/>
</clipPath>
</defs>
</svg>
